<svg xmlns="http://www.w3.org/2000/svg" viewBox="0 0 55.04873 55.04873"><defs><style>.cls-1,.cls-2,.cls-3,.cls-5{fill:#649348;}.cls-1,.cls-2,.cls-3,.cls-6{stroke:#456132;}.cls-1,.cls-2,.cls-3,.cls-6,.cls-7{stroke-miterlimit:10;}.cls-1{stroke-width:1.55075px;}.cls-2{stroke-width:1.40429px;}.cls-3,.cls-6{stroke-width:1.85728px;}.cls-4{fill:#e2e9e9;stroke:#c3c6c6;stroke-linejoin:round;stroke-width:2px;}.cls-4,.cls-6{stroke-linecap:round;}.cls-6,.cls-7{fill:none;}.cls-7{stroke:#4a4644;}</style></defs><title>Apfelmus-aus-dem-Baum</title><g id="Ebene_1" data-name="Ebene 1"><path class="cls-1" d="M143.09,113.75a26.08715,26.08715,0,0,1-18.03-44.6A53.78925,53.78925,0,0,1,137.01,84.4c.55,1.04,1.07,2.11005,1.55,3.2a54.42793,54.42793,0,0,1,1.98,5.13c.02.07.04.13.06.19.09.3.19.6.28.9.19.61.36,1.23.52,1.85a52.57605,52.57605,0,0,1,1.78,11.48A50.0465,50.0465,0,0,1,143.09,113.75Z" transform="translate(-115.94063 -60.13063)"/><path class="cls-2" d="M149,113.17a25.90438,25.90438,0,0,1-5.54.59c-.12,0-.25,0-.37-.01a26.09919,26.09919,0,0,1-24.28-17.5,49.77061,49.77061,0,0,1,24.37,10.9A40.872,40.872,0,0,1,149,113.17Z" transform="translate(-115.94063 -60.13063)"/><path class="cls-3" d="M165.89,101.02a26.12729,26.12729,0,0,1-10.51,9.86,25.40775,25.40775,0,0,1-6.38,2.29,25.90438,25.90438,0,0,1-5.54.59c-.12,0-.25,0-.37-.01a26.09673,26.09673,0,0,1-14.6-47.47A47.9999,47.9999,0,0,1,165.89,101.02Z" transform="translate(-115.94063 -60.13063)"/></g><g id="Rabbit"><path class="cls-4" d="M141.99906,96.21716s6.363-5.46034,9.17-5.76827a2.6687,2.6687,0,0,0,.41675-5.26726c-3.25169-1.10532-9.69106,5.40338-11.98124,8.82852Z" transform="translate(-115.94063 -60.13063)"/><path class="cls-4" d="M137.2674,93.44055c.63553-3.40734,2.889-8.267-.51519-9.11932a5.0681,5.0681,0,0,0-6.35943,4.83857c.15026,2.965,3.13586,2.00691,3.13586,2.00691l.03194-2.52691.2107,4.864Z" transform="translate(-115.94063 -60.13063)"/></g><g id="Front"><path class="cls-5" d="M150.73,97.97a71.67377,71.67377,0,0,1,4.65,12.91,25.40775,25.40775,0,0,1-6.38,2.29,25.90438,25.90438,0,0,1-5.54.59c-.12,0-.25,0-.37-.01a26.1092,26.1092,0,0,1-24.02-35.4,87.99169,87.99169,0,0,1,10.43,4.06,11.43159,11.43159,0,0,1,4.5,1.97,11.68229,11.68229,0,0,1,4.18,5.32,15.64442,15.64442,0,0,1,.87,3.15q.705.015,1.35.06a1.27351,1.27351,0,0,1,.2.01,19.69037,19.69037,0,0,1,4.54.82C149.79,95.2,150.73,97.97,150.73,97.97Z" transform="translate(-115.94063 -60.13063)"/><path class="cls-6" d="M129.49681,82.40636s8.00773,1.1805,9.55,10.44319c10.00358.16774,11.68592,5.1253,11.68592,5.1253" transform="translate(-115.94063 -60.13063)"/><path class="cls-7" d="M170.48936,87.66015a27.01379,27.01379,0,0,1-14.68974,24.03778,26.30289,26.30289,0,0,1-6.60469,2.37063,26.81707,26.81707,0,0,1-5.73508.6108c-.12422,0-.25881,0-.383-.01036a27.02061,27.02061,0,1,1,27.41254-27.00885Z" transform="translate(-115.94063 -60.13063)"/></g></svg>