<svg xmlns="http://www.w3.org/2000/svg" viewBox="0 0 53.59832 53.59838"><defs><style>.cls-1{fill:#d47a28;stroke:#cd5627;stroke-width:1.39374px;}.cls-1,.cls-3,.cls-4,.cls-5{stroke-linecap:round;stroke-linejoin:round;}.cls-2{fill:#fecf0a;}.cls-3,.cls-5{fill:#5b422a;}.cls-3,.cls-4,.cls-5{stroke:#4d321f;}.cls-3,.cls-4{stroke-width:0.67374px;}.cls-4{fill:#553a26;}.cls-5{stroke-width:0.94054px;}.cls-6{fill:none;stroke:#434343;stroke-miterlimit:10;}</style></defs><title>Das-Feuer-in-der-Höhle</title><g id="Fire"><path class="cls-1" d="M57.30645,59.60835c-.13995.15-.28.29-.43.43006a17.367,17.367,0,0,1-6.52,3.97c-.4.13-.77.25-1.12006.34-.43.12-.81994.2-1.16.27a11.133,11.133,0,0,1-1.43.21c-.5.04-.95.06-1.31.06-.28.01-.51.01-.68,0h-.02c-.14-.01-.23-.01-.29-.01a12.91258,12.91258,0,0,1-2.89-.53,17.51749,17.51749,0,0,1-5.72-3.09,22.46734,22.46734,0,0,1-6.05-7.45,20.515,20.515,0,0,1-.76-15.51c.18005-.5.37005-.96.76-1.88a85.74817,85.74817,0,0,1,5.14-10.22c.17-.11.35-.22.53-.33.08,1.42.2,2.96.39,4.59.1.94.32,2.73.71,4.91a82.47,82.47,0,0,0,2.25,9.48,64.21774,64.21774,0,0,1,2.22-21.45,25.63282,25.63282,0,0,1,7.38-1.1c.08,2.59.27,5.02.55,7.27.89-2.36,1.79-4.71,2.68-7.07a24.83559,24.83559,0,0,1,7.03,1.94c.6,2.41,1.13,5.01,1.56,7.77C61.9165,43.74837,63.38647,53.22841,57.30645,59.60835Z" transform="translate(-21.56232 -20.94417)"/><path class="cls-2" d="M53.22861,59.66191a13.90713,13.90713,0,0,0,4.65056-7.2449,18.53332,18.53332,0,0,0,.21139-9.4842A25.31479,25.31479,0,0,0,55.413,35.42445c-.5309,1.94566-1.17881,4.01882-1.973,6.1911-.89352,2.44392-1.85241,4.68579-2.81853,6.718a35.10054,35.10054,0,0,0-2.3957-8.03525,36.31953,36.31953,0,0,0-4.29824-7.37662,38.35825,38.35825,0,0,1-.21139,8.23283,39.08735,39.08735,0,0,1-3.2413,11.13079,28.42344,28.42344,0,0,1-3.66407-3.16141,27.31489,27.31489,0,0,1-3.94591-5.13729,17.11957,17.11957,0,0,0,.07045,6.45455,14.86616,14.86616,0,0,0,4.79145,8.75972,12.14636,12.14636,0,0,0,7.82142,3.359A11.97848,11.97848,0,0,0,53.22861,59.66191Z" transform="translate(-21.56232 -20.94417)"/></g><g id="Wood"><path class="cls-3" d="M62.64648,64.3484v4.45a25.13759,25.13759,0,0,1-7.69,3.52,24.59136,24.59136,0,0,1-2.86.6,25.5088,25.5088,0,0,1-17.54-3.81006,1.81231,1.81231,0,0,1-.29-.18994l-.19.07v-4.64Z" transform="translate(-21.56232 -20.94417)"/><path class="cls-4" d="M68.6665,63.08839a25.43425,25.43425,0,0,1-5.6,5.41l-.42-.11-10.99-2.84-3.58-.93-1.05-.27-.59-.15-1.07-.28.35-1.36.8-3.11h.01l.5-1.96,6.72,1.74,3.13.81Z" transform="translate(-21.56232 -20.94417)"/><path class="cls-4" d="M56.36645,71.13838l-1.41,1.18a24.59136,24.59136,0,0,1-2.86.6l-6.76-8.03-.17-.2-.29-.34-1.79-2.13-2.42-2.88-.88-1.04,3.38-2.84,1.85,2.19,1.5,1.78v.02h.01l2.23,2.65,1.6,1.91.29.34,1.01,1.2Z" transform="translate(-21.56232 -20.94417)"/><path class="cls-5" d="M48.1065,63.54836l-1.67.65-.39.15-.88.34-.51.2h-.02l-9.47,3.68-.9.35-.19.07v-.19a23.92129,23.92129,0,0,1-2.59-2.01,25.98039,25.98039,0,0,1-2.73-2.82l6.98-2.71,3.05-1.19,1.88-.73,4.35-1.69.7-.27.8,2.05v.02l1.13,2.92Z" transform="translate(-21.56232 -20.94417)"/><path class="cls-4" d="M38.68646,65.47841l-3.52,3.09-.61005.54a1.81231,1.81231,0,0,1-.29-.18994l-.19.07v-.19a23.92129,23.92129,0,0,1-2.59-2.01l2.59-2.28.19-.16,1.93-1.7,1.5,1.7Z" transform="translate(-21.56232 -20.94417)"/><path class="cls-6" d="M74.66063,47.73819A26.18072,26.18072,0,0,1,63.5601,69.19511a4.155,4.155,0,0,1-.43408.31006,25.98133,25.98133,0,0,1-7.94815,3.63818,25.41658,25.41658,0,0,1-2.956.62018,26.36517,26.36517,0,0,1-18.12885-3.938,1.87356,1.87356,0,0,1-.29971-.19632.78537.78537,0,0,1-.19638-.12408,24.72417,24.72417,0,0,1-2.677-2.07743,26.85042,26.85042,0,0,1-2.82162-2.91467A26.30311,26.30311,0,0,1,34.3721,25.47512c.17569-.11368.36173-.22736.54783-.3411A26.08056,26.08056,0,0,1,48.3046,21.44417h.062a26.431,26.431,0,0,1,3.27646.20673A25.66911,25.66911,0,0,1,58.909,23.656,26.27572,26.27572,0,0,1,74.66063,47.73819Z" transform="translate(-21.56232 -20.94417)"/></g></svg>