<svg xmlns="http://www.w3.org/2000/svg" viewBox="0 0 41.92172 41.87"><defs><style>.cls-1,.cls-2{fill:#f7e455;stroke:#ffd939;}.cls-1,.cls-2,.cls-6{stroke-miterlimit:10;}.cls-1{stroke-width:1.10941px;}.cls-2{stroke-width:1.11179px;}.cls-3{fill:#eaaa55;}.cls-4{fill:#2b2b2b;}.cls-5{fill:#f4cb55;}.cls-6{fill:none;stroke:#4a4644;}</style></defs><title>Die-Entdeckertour-von-Esther</title><g id="Ebene_1" data-name="Ebene 1"><path class="cls-1" d="M34.2307,20.38267c.00231,4.78291-4.35882,9.32507-8.47744,9.35411A9.76139,9.76139,0,0,1,20.837,28.07719a11.06036,11.06036,0,0,1-2.77925-2.91688c-.61692-.96376-.71029-1.4818-1.09849-1.99092a5.01561,5.01561,0,0,0-.45784-.47334,6.80448,6.80448,0,0,0-2.6125-1.45844,13.41307,13.41307,0,0,0,2.574-2.86023c.23017-.35034.5212-.83493.82716-1.34433.71846-1.19622,1.18237-2.06779,1.26791-2.18238a9.73618,9.73618,0,0,1,7.19522-3.82211C30.08609,11.07729,34.22838,15.72377,34.2307,20.38267Z" transform="translate(-4.84378 -0.44409)"/><path class="cls-2" d="M46.20376,21.84412a19.81358,19.81358,0,0,1-1.17,6.37,19.22611,19.22611,0,0,1-1.51,3.29c-.08.15-.17.3-.26.45a20.53641,20.53641,0,0,1-7.15,7.05,20.11468,20.11468,0,0,1-7.26,2.57,15.37,15.37,0,0,1-4.37-3.45c-.91-1.05-2.91-3.35-3.03-6.11005a7.19236,7.19236,0,0,1,.64-3.22c1.75-4.08,6.8-7.75,12.12-8.96a15.67648,15.67648,0,0,1,4.75-.37A18.83187,18.83187,0,0,1,46.20376,21.84412Z" transform="translate(-4.84378 -0.44409)"/><path class="cls-3" d="M16.58319,23.76439c-.18585.03261-.252-.23136-.79382-.70537a6.62467,6.62467,0,0,0-1.38711-.88814c-1.16246-.61947-1.37232-.47686-1.48287-.73267-.26281-.60816,1.04219-1.139,2.74785-3.35339.23506-.30517.5075-.681.79382-.63532.38413.06123.75874.87555.57354,1.49879-.11375.38281-.39656.55175-.45141,1.06291a1.582,1.582,0,0,0,.0302.51152,3.7081,3.7081,0,0,1,.33616.91827C17.178,22.476,16.96843,23.69681,16.58319,23.76439Z" transform="translate(-4.84378 -0.44409)"/></g><g id="Ebene_5" data-name="Ebene 5"><ellipse class="cls-4" cx="16.76939" cy="17.57033" rx="0.97596" ry="0.95216"/></g><g id="Ebene_2" data-name="Ebene 2"><path class="cls-5" d="M43.52377,31.50409a11.66305,11.66305,0,0,0-1.28-.09,11.384,11.384,0,0,1,1.02.54,20.53641,20.53641,0,0,1-7.15,7.05c-2.75-.05-4.24.62006-7.21-.09-1.56-.37-4.45-1.07-5.97-3.58a7.21109,7.21109,0,0,1-.36-6.33,9.71758,9.71758,0,0,1,4.56-4.54,11.31106,11.31106,0,0,1,6.53-1.04,23.5969,23.5969,0,0,1,3.9.86,21.21676,21.21676,0,0,1,7.47,3.93A19.22611,19.22611,0,0,1,43.52377,31.50409Z" transform="translate(-4.84378 -0.44409)"/><path class="cls-6" d="M46.21377,21.3841c0,.15,0,.31-.01.46a19.81358,19.81358,0,0,1-1.17,6.37,19.22611,19.22611,0,0,1-1.51,3.29c-.08.15-.17.3-.26.45a20.53641,20.53641,0,0,1-7.15,7.05,20.11468,20.11468,0,0,1-7.26,2.57,19.49458,19.49458,0,0,1-3.08.24,20.435,20.435,0,1,1,20.44-20.43Z" transform="translate(-4.84378 -0.44409)"/></g></svg>