<svg xmlns="http://www.w3.org/2000/svg" viewBox="0 0 34.80408 34.83586"><defs><style>.cls-1,.cls-2{fill:#f7e455;stroke:#ffd939;stroke-miterlimit:10;}.cls-1{stroke-width:1.10941px;}.cls-2{stroke-width:1.11179px;}.cls-3{fill:#eaaa55;}.cls-4{fill:#2b2b2b;}.cls-5{fill:#f4cb55;}.cls-6{fill:#e23d22;stroke:#e23d21;stroke-width:1.47762px;}.cls-6,.cls-7{stroke-linecap:round;stroke-linejoin:round;}.cls-7{fill:none;stroke:#464646;}</style></defs><title>esther</title><g id="Ebene_1" data-name="Ebene 1"><path class="cls-1" d="M28.39119,18.72161c.00231,4.78292-4.35882,9.32507-8.47744,9.35412a9.7614,9.7614,0,0,1-4.91624-1.6596,11.06073,11.06073,0,0,1-2.77925-2.91687c-.61692-.96376-.71029-1.48181-1.09849-1.99092a5.0129,5.0129,0,0,0-.45784-.47334,6.804,6.804,0,0,0-2.6125-1.45844,13.41327,13.41327,0,0,0,2.574-2.86023c.23018-.35035.5212-.83493.82716-1.34433.71846-1.19623,1.18238-2.0678,1.26792-2.18239A9.7362,9.7362,0,0,1,19.91375,9.3675C24.24659,9.41623,28.38888,14.06271,28.39119,18.72161Z" transform="translate(-3.84378 -0.36414)"/><path class="cls-2" d="M38.06375,19.0741a16.417,16.417,0,0,1-1.46,5.68,16.88209,16.88209,0,0,1-15.37,9.89,17.26132,17.26132,0,0,1-3.76-.42c-.21-.05-.42-.1-.62994-.16a7.93707,7.93707,0,0,1-1.23-3.71,7.221,7.221,0,0,1,.62-3.16v-.00994c0-.02.01-.03.02-.05a10.1066,10.1066,0,0,1,.85-1.58l.01-.01a13.40628,13.40628,0,0,1,1.53-1.92,17.89364,17.89364,0,0,1,3.73-2.98,18.83336,18.83336,0,0,1,2.44-1.28q.78-.34506,1.59-.63a1.08336,1.08336,0,0,1,.17-.05h.01c.38-.13.75-.25,1.13995-.35h.01c.21-.06.42-.11.64-.16a.63615.63615,0,0,1,.07-.02,16.38034,16.38034,0,0,1,4.1-.39h.01c.19.01.38.03.57.04A16.65148,16.65148,0,0,1,38.06375,19.0741Z" transform="translate(-3.84378 -0.36414)"/><path class="cls-3" d="M10.74369,22.10333c-.18586.03261-.25206-.23135-.79383-.70537a6.62508,6.62508,0,0,0-1.38711-.88814c-1.16246-.61947-1.37231-.47685-1.48287-.73267-.26281-.60816,1.04219-1.13895,2.74786-3.35339.23506-.30516.50749-.681.79382-.63532.38412.06124.75873.87555.57353,1.4988-.11375.3828-.39655.55175-.4514,1.0629a1.58179,1.58179,0,0,0,.03019.51152,3.70785,3.70785,0,0,1,.33616.91827C11.33848,20.81491,11.12892,22.03575,10.74369,22.10333Z" transform="translate(-3.84378 -0.36414)"/></g><g id="Ebene_5" data-name="Ebene 5"><ellipse class="cls-4" cx="11.92988" cy="15.98923" rx="0.97596" ry="0.95216"/></g><g id="Ebene_2" data-name="Ebene 2"><path class="cls-5" d="M36.60373,24.75409a16.88209,16.88209,0,0,1-15.37,9.89,17.26132,17.26132,0,0,1-3.76-.42,5.36247,5.36247,0,0,1-.37994-.55,7.21071,7.21071,0,0,1-.36-6.33,7.84178,7.84178,0,0,1,1.06-1.76,9.01109,9.01109,0,0,1,1.52-1.51,11.01479,11.01479,0,0,1,3.65-1.94h.00995a10.83963,10.83963,0,0,1,3.07-.46,14.72842,14.72842,0,0,1,1.78.09,23.59042,23.59042,0,0,1,3.9.86005A20.49906,20.49906,0,0,1,36.60373,24.75409Z" transform="translate(-3.84378 -0.36414)"/><path class="cls-6" d="M27.79478,17.84305a2.65586,2.65586,0,0,0-1.75053-.48657A2.10328,2.10328,0,0,0,24.858,17.81a2.59083,2.59083,0,0,0-.73262,1.39551c-.27557.90052-.41516,1.35663-.21468,1.67719.4291.68613,2.43486.77888,3.37739-.16887,1.18539-1.19193-.11619-3.22013.15163-7.02063a15.6122,15.6122,0,0,1,.942-4.32612,11.15444,11.15444,0,0,0,9.00113,5.303A15.72921,15.72921,0,0,1,34.06852,16.868a19.15329,19.15329,0,0,1-7.45588,1.77714c-.39519.02573-.71965.03685-.92878.04223a5.19044,5.19044,0,0,0-.46439,2.06865,5.31509,5.31509,0,0,0,.09212.99632,7.43073,7.43073,0,0,1-.59307,3.5237,38.30011,38.30011,0,0,1-2.16309,5.19832,10.0166,10.0166,0,0,0-7.39625-8.02426,10.83084,10.83084,0,0,1,3.45393-1.4653c2.60494-.59213,5.62548-.21326,5.65187-.48843.00719-.07493-.21293-.14332-.19337-.27374.01852-.12341.233-.20874.58483-.414.00011-.00007.1343-.08129.26749-.15028.55609-.28811,1.11051-.57537,1.51983-.38a.871.871,0,0,1,.46443.92879c-.16061.45313-1.11224.634-2.399.42873q-2.35493,1.5438-4.70989,3.08759A13.75874,13.75874,0,0,0,14.51376,28.525l-.45791-.56257c.55614-.62544,1.15285-1.26421,1.79235-1.91013.9792-.989,1.94558-1.88056,2.87827-2.682" transform="translate(-3.84378 -0.36414)"/><path class="cls-7" d="M38.12375,17.75409c0,.44-.02.89-.06,1.32a16.417,16.417,0,0,1-1.46,5.68,16.88209,16.88209,0,0,1-15.37,9.89,17.26132,17.26132,0,0,1-3.76-.42c-.21-.05-.42-.1-.62994-.16a16.891,16.891,0,1,1,21-19.41c.00995.07.02.14.03.22A16.07071,16.07071,0,0,1,38.12375,17.75409Z" transform="translate(-3.84378 -0.36414)"/></g></svg>