<svg xmlns="http://www.w3.org/2000/svg" viewBox="0 0 15.16998 15.17004"><defs><style>.cls-1{fill:#967857;stroke:#615045;}.cls-1,.cls-2,.cls-3,.cls-4,.cls-5{stroke-linecap:round;stroke-linejoin:round;}.cls-2{fill:#d9edee;stroke:#95bab9;}.cls-2,.cls-3,.cls-4{stroke-width:0.5px;}.cls-3{fill:#efd8e2;stroke:#c19ac0;}.cls-4{fill:#d7ddf1;stroke:#aabbdb;}.cls-5{fill:#c29967;stroke:#887260;}.cls-6{fill:none;stroke:#4b4745;stroke-miterlimit:10;}</style></defs><title>Geheimes-Buchversteck</title><g id="Ebene_1" data-name="Ebene 1"><path class="cls-1" d="M28.53,30.91a7.18165,7.18165,0,0,1,.58,2.82,6.90829,6.90829,0,0,1-.29,2,7.22734,7.22734,0,0,1-.29.82,6.49881,6.49881,0,0,1-.85,1.44,3.94439,3.94439,0,0,1-.36.45,7.10676,7.10676,0,0,1-1.41,1.22.74212.74212,0,0,1-.12.07,4.70335,4.70335,0,0,1-.48.29,6.27281,6.27281,0,0,1-.88.37,6.8527,6.8527,0,0,1-2.4.43,7.0178,7.0178,0,0,1-3.44-.89l-.1-.02v-.04a.76166.76166,0,0,1-.19-.12,6.56106,6.56106,0,0,1-1.22-.95,5.64743,5.64743,0,0,1-.84-.99,7.08,7.08,0,0,1,5.79-11.16,7.09722,7.09722,0,0,1,6.5,4.26Z" transform="translate(-14.44 -26.14996)"/><path class="cls-2" d="M18.49,32.91v6.96a.76166.76166,0,0,1-.19-.12,6.56106,6.56106,0,0,1-1.22-.95V32.91Z" transform="translate(-14.44 -26.14996)"/><path class="cls-2" d="M20.82,33.07l-.21,1.3-.93,5.74-1.09-.18-.1-.02v-.04a.76166.76166,0,0,1-.19-.12l.19-1.15.94-5.75,1.18.19Z" transform="translate(-14.44 -26.14996)"/><rect class="cls-3" x="6.17497" y="5.82876" width="1.41113" height="8.06067"/><rect class="cls-3" x="7.94093" y="5.82876" width="1.41113" height="8.06067"/><path class="cls-2" d="M25.79,39.73a4.70335,4.70335,0,0,1-.48.29l-.88.06H24.4l-.51-7.11.54-.04.87-.06Z" transform="translate(-14.44 -26.14996)"/><path class="cls-4" d="M27.32,32.91v5.53a7.10676,7.10676,0,0,1-1.41,1.22V32.91Z" transform="translate(-14.44 -26.14996)"/><path class="cls-2" d="M28.82,33.37v2.36a7.22734,7.22734,0,0,1-.29.82,6.49881,6.49881,0,0,1-.85,1.44V33.37Z" transform="translate(-14.44 -26.14996)"/></g><g id="Ebene_7" data-name="Ebene 7"><path class="cls-5" d="M16.24,29.65v8.16a7.05257,7.05257,0,0,1,0-8.16Z" transform="translate(-14.44 -26.14996)"/><path class="cls-6" d="M29.11,33.73a6.90829,6.90829,0,0,1-.29,2,7.22734,7.22734,0,0,1-.29.82,6.49881,6.49881,0,0,1-.85,1.44,3.94439,3.94439,0,0,1-.36.45,7.10676,7.10676,0,0,1-1.41,1.22.74212.74212,0,0,1-.12.07,4.70335,4.70335,0,0,1-.48.29,6.27281,6.27281,0,0,1-.88.37,6.8527,6.8527,0,0,1-2.4.43,7.0178,7.0178,0,0,1-3.44-.89.8808.8808,0,0,1-.1-.06.76166.76166,0,0,1-.19-.12,6.56106,6.56106,0,0,1-1.22-.95,5.64743,5.64743,0,0,1-.84-.99,7.08,7.08,0,0,1,5.79-11.16,7.09722,7.09722,0,0,1,6.5,4.26A7.18165,7.18165,0,0,1,29.11,33.73Z" transform="translate(-14.44 -26.14996)"/></g></svg>