<svg xmlns="http://www.w3.org/2000/svg" viewBox="0 0 28.99273 28.9502"><defs><style>.cls-1{fill:#ffe181;}.cls-2{fill:#010101;opacity:0.3;}.cls-3{fill:#fff;}.cls-4{fill:#f59b00;}.cls-5{fill:#ffcb00;}.cls-6{fill:none;stroke:#4a4644;stroke-miterlimit:10;}</style></defs><title>Gemälde-von-Pablo-Picchaso</title><g id="Ebene_5" data-name="Ebene 5"><path class="cls-1" d="M6.99778,31.55909a.07511.07511,0,0,1-.04-.09033.8905.8905,0,0,1,1.12011-.57959.07131.07131,0,0,1,.04981.08984.06058.06058,0,0,1-.08984.04.76512.76512,0,0,0-.9502.5.063.063,0,0,1-.06006.04981A.03684.03684,0,0,1,6.99778,31.55909Z" transform="translate(-2.79758 -28.61866)"/><path class="cls-1" d="M31.59739,42.979v.13965a1.52564,1.52564,0,0,1-.33985-.16992v.15039a13.733,13.733,0,0,1-.71972,4.40967,13.33453,13.33453,0,0,1-1.25,2.74023,14.03765,14.03765,0,0,1-5.62989,5.27979A13.26141,13.26141,0,0,1,20.23752,56.749a9.57355,9.57355,0,0,1-1.18994.19971c-.06006.01025-.12012.02-.16992.03027a14.159,14.159,0,0,1-1.6001.08985h-.19971c-.30029,0-.60009-.02-.90039-.04a1.12623,1.12623,0,0,1-.79.03027,1.14918,1.14918,0,0,1-.32959-.16992,9.61885,9.61885,0,0,1-1.07032-.21045A13.9923,13.9923,0,0,1,3.29758,43.09913a13.91407,13.91407,0,0,1,3.29-9,1.02779,1.02779,0,0,1-.33984-.54,1.16072,1.16072,0,0,0,.38965.46973c.25-.29.51025-.58008.79-.8501a3.47392,3.47392,0,0,1,.36036-.31982.28436.28436,0,0,1,.10986-.10987,7.72149,7.72149,0,0,1,.94971-.78027.2222.2222,0,0,1,.11035-.08984,3.0528,3.0528,0,0,1,.2998-.23,11.93266,11.93266,0,0,1,1.31006-.81006c.02-.02.02979-.02979.05029-.02979a13.82751,13.82751,0,0,1,6.65967-1.69043,13.65438,13.65438,0,0,1,3.91016.56006,11.50254,11.50254,0,0,1,1.60986.58008,5.09042,5.09042,0,0,1,.71.33008,1.00237,1.00237,0,0,1,.41992.04.03571.03571,0,0,0,.02.01025.73193.73193,0,0,1,.16016.06982,1.05776,1.05776,0,0,1,.5.48,13.38864,13.38864,0,0,1,2.12988,1.62011.48512.48512,0,0,1,.13037.11963A13.79414,13.79414,0,0,1,30.47776,38.499c.02-.01025.04-.01025.06006-.02V38.669c.0498.14013.09961.27978.13964.43017.03028.08985.0503.17969.08008.27979.02.06006.03028.12011.0503.18017.10986.41992.1997.83985.27,1.27979a.45277.45277,0,0,0,.01954.1001,14.43133,14.43133,0,0,1,.15039,1.87988A1.22525,1.22525,0,0,0,31.59739,42.979Z" transform="translate(-2.79758 -28.61866)"/></g><g id="Ebene_2" data-name="Ebene 2"><path class="cls-2" d="M10.54758,33.98878a2.25054,2.25054,0,0,1-2.95019.80029,9.90116,9.90116,0,0,1-1.00977-.68994,1.02779,1.02779,0,0,1-.33984-.54,1.16072,1.16072,0,0,0,.38965.46973c.22021.16992.5205.33008.89013.58984a2.21262,2.21262,0,0,0,2.8999-.75976c.39014-.75977,1.29-1.98.14014-3.02.02-.02.02979-.02979.05029-.02979C11.90793,31.89894,10.94748,33.189,10.54758,33.98878Z" transform="translate(-2.79758 -28.61866)"/><path class="cls-3" d="M10.5676,30.83888a11.93266,11.93266,0,0,0-1.31006.81006,3.0528,3.0528,0,0,0-.2998.23.64468.64468,0,0,1-.04.18994,1.13676,1.13676,0,0,1-1.12988.79,3.47392,3.47392,0,0,0-.36036.31982c-.27978.27-.54.56006-.79.8501.22021.16992.5205.33008.89013.58984a2.21262,2.21262,0,0,0,2.8999-.75976C10.8176,33.09913,11.7175,31.87892,10.5676,30.83888Z" transform="translate(-2.79758 -28.61866)"/><path class="cls-4" d="M8.95774,31.87892a.64468.64468,0,0,1-.04.18994,1.13676,1.13676,0,0,1-1.12988.79.28436.28436,0,0,1,.10986-.10987,1.0666,1.0666,0,0,0,.93994-.75c0-.01025.00977-.02.00977-.03027A.2222.2222,0,0,1,8.95774,31.87892Z" transform="translate(-2.79758 -28.61866)"/><path class="cls-5" d="M7.89768,32.749a1.0666,1.0666,0,0,0,.93994-.75c0-.01025.00977-.02.00977-.03027A7.72149,7.72149,0,0,0,7.89768,32.749Z" transform="translate(-2.79758 -28.61866)"/><path class="cls-3" d="M8.12766,30.979a.06058.06058,0,0,1-.08984.04.76512.76512,0,0,0-.9502.5.063.063,0,0,1-.06006.04981.03684.03684,0,0,1-.02978-.00977.07511.07511,0,0,1-.04-.09033.8905.8905,0,0,1,1.12011-.57959A.07131.07131,0,0,1,8.12766,30.979Z" transform="translate(-2.79758 -28.61866)"/><path class="cls-2" d="M10.42957,50.06734a2.22315,2.22315,0,0,1-2.90056.76428c-.67548-.46388-1.09631-.62877-1.2842-1.06241.15607.5559.59722.70673,1.34981,1.22749a2.25531,2.25531,0,0,0,2.94884-.79546c.41426-.81138,1.39135-2.13891.01493-3.23557a4.69656,4.69656,0,0,0-1.52551-.88059,4.94394,4.94394,0,0,1,1.3997.82966C11.79177,47.98834,10.83451,49.27827,10.42957,50.06734Z" transform="translate(-2.79758 -28.61866)"/><path class="cls-3" d="M6.24481,49.76921c.18789.43364.60872.59853,1.2842,1.06241a2.22315,2.22315,0,0,0,2.90056-.76428c.40494-.78907,1.3622-2.079.003-3.1526a4.94394,4.94394,0,0,0-1.3997-.82966,1.645,1.645,0,0,0-1.39452.07239c-.51611.27564-1.34584.61082-1.34584.61082-1.227.63489-.14765,1.12931-.16261,2.23891A1.83881,1.83881,0,0,0,6.24481,49.76921ZM8.9136,48.28126a1.13014,1.13014,0,1,1-2.1517-.69205l.00747-.02161.00637-.022a1.08254,1.08254,0,0,1,1.36244-.7074l.02147.00752.02182.0064A1.13856,1.13856,0,0,1,8.9136,48.28126Z" transform="translate(-2.79758 -28.61866)"/><path class="cls-4" d="M8.18147,46.85215l-.02182-.0064a1.09033,1.09033,0,1,1-1.39028.72185l-.00747.02161a1.13014,1.13014,0,1,0,1.41957-.73706Z" transform="translate(-2.79758 -28.61866)"/><path class="cls-5" d="M7.47841,48.91724a1.09045,1.09045,0,0,0,.68124-2.07149l-.02147-.00752a1.08254,1.08254,0,0,0-1.36244.7074l-.00637.022A1.09241,1.09241,0,0,0,7.47841,48.91724ZM8.12607,47.186a.07029.07029,0,0,1-.08837.0459.744.744,0,0,0-.57495.04839.75271.75271,0,0,0-.37254.44353.07035.07035,0,1,1-.13395-.04308.893.893,0,0,1,.442-.52626.88329.88329,0,0,1,.68219-.05746A.07088.07088,0,0,1,8.12607,47.186Z" transform="translate(-2.79758 -28.61866)"/><path class="cls-3" d="M8.08049,47.09705a.88329.88329,0,0,0-.68219.05746.893.893,0,0,0-.442.52626.07036.07036,0,1,0,.13395.04308.75271.75271,0,0,1,.37254-.44353.744.744,0,0,1,.57495-.04839.07075.07075,0,0,0,.04279-.13488Z" transform="translate(-2.79758 -28.61866)"/><path class="cls-2" d="M26.86789,32.92872c-.16015.40039-.39013.76026-.54,1.06006a2.24779,2.24779,0,0,1-2.95019.80029c-.75-.52-1.18994-.67041-1.3501-1.23.18994.43994.60987.59961,1.29,1.05957a2.2155,2.2155,0,0,0,2.8999-.75976,9.31047,9.31047,0,0,0,.52-1.04981A.48512.48512,0,0,1,26.86789,32.92872Z" transform="translate(-2.79758 -28.61866)"/><path class="cls-3" d="M24.60764,31.189a1.07882,1.07882,0,0,1,.08984.87988,1.12548,1.12548,0,0,1-2.17968-.54981.90365.90365,0,0,1,.04-.16015v-.02a1.06692,1.06692,0,0,1,.9497-.75,5.09042,5.09042,0,0,0-.71-.33008c-.37988.16016-.71973.30029-.71973.30029-1.23046.63965-.15039,1.12989-.16015,2.23975a1.77234,1.77234,0,0,0,.10986.76025c.18994.43994.60987.59961,1.29,1.05957a2.2155,2.2155,0,0,0,2.8999-.75976,9.31047,9.31047,0,0,0,.52-1.04981A13.38864,13.38864,0,0,0,24.60764,31.189Z" transform="translate(-2.79758 -28.61866)"/><path class="cls-4" d="M24.69748,32.06886a1.12548,1.12548,0,0,1-2.17968-.54981,1.08546,1.08546,0,0,0,2.10986.48,1.13363,1.13363,0,0,0-.08008-.85009,1.16024,1.16024,0,0,0-.43994-.43995,1.05776,1.05776,0,0,1,.5.48A1.07882,1.07882,0,0,1,24.69748,32.06886Z" transform="translate(-2.79758 -28.61866)"/><path class="cls-5" d="M24.54758,31.14894a1.16024,1.16024,0,0,0-.43994-.43995.73193.73193,0,0,0-.16016-.06982.03571.03571,0,0,1-.02-.01025,1.00237,1.00237,0,0,0-.41992-.04,1.06692,1.06692,0,0,0-.9497.75v.02a.90365.90365,0,0,0-.04.16015,1.08546,1.08546,0,0,0,2.10986.48A1.13363,1.13363,0,0,0,24.54758,31.14894Zm-.63965-.16993a.05434.05434,0,0,1-.08008.04.76091.76091,0,0,0-.95019.5.07507.07507,0,0,1-.06982.04981c-.01026,0-.01026,0-.02-.00977a.0723.0723,0,0,1-.0503-.09033.90153.90153,0,0,1,1.13037-.57959A.06082.06082,0,0,1,23.90793,30.979Z" transform="translate(-2.79758 -28.61866)"/><path class="cls-3" d="M23.86625,30.889a.8943.8943,0,0,0-1.12426.58372.07088.07088,0,0,0,.04559.089.06941.06941,0,0,0,.02142.00338.07041.07041,0,0,0,.067-.04926.7537.7537,0,0,1,.9475-.49195.07074.07074,0,0,0,.04279-.13485Z" transform="translate(-2.79758 -28.61866)"/><path class="cls-2" d="M26.21531,50.06734a2.22315,2.22315,0,0,1-2.90056.76428c-.67547-.46388-1.0963-.62877-1.2842-1.06241.15607.5559.59722.70673,1.34982,1.22749a2.25529,2.25529,0,0,0,2.94883-.79546c.41426-.81138,1.39136-2.13891.01494-3.23557a4.69649,4.69649,0,0,0-1.52552-.88059,4.94367,4.94367,0,0,1,1.3997.82966C27.57752,47.98834,26.62026,49.27827,26.21531,50.06734Z" transform="translate(-2.79758 -28.61866)"/><path class="cls-3" d="M22.03055,49.76921c.1879.43364.60873.59853,1.2842,1.06241a2.22315,2.22315,0,0,0,2.90056-.76428c.40495-.78907,1.36221-2.079.003-3.1526a4.94367,4.94367,0,0,0-1.3997-.82966,1.64493,1.64493,0,0,0-1.39451.07239c-.51612.27564-1.34584.61082-1.34584.61082-1.227.63489-.14765,1.12931-.16261,2.23891A1.83883,1.83883,0,0,0,22.03055,49.76921Zm2.6688-1.48795a1.13014,1.13014,0,1,1-2.1517-.69205l.00746-.02161.00637-.022a1.08254,1.08254,0,0,1,1.36244-.7074l.02148.00752.02181.0064A1.13858,1.13858,0,0,1,24.69935,48.28126Z" transform="translate(-2.79758 -28.61866)"/><path class="cls-4" d="M23.96721,46.85215l-.02181-.0064a1.09033,1.09033,0,1,1-1.39029.72185l-.00746.02161a1.13014,1.13014,0,1,0,1.41956-.73706Z" transform="translate(-2.79758 -28.61866)"/><path class="cls-5" d="M23.26416,48.91724a1.09045,1.09045,0,0,0,.68124-2.07149l-.02148-.00752a1.08254,1.08254,0,0,0-1.36244.7074l-.00637.022A1.09242,1.09242,0,0,0,23.26416,48.91724Zm.64768-1.73121a.07034.07034,0,0,1-.08838.0459.74409.74409,0,0,0-.575.04839.75271.75271,0,0,0-.37254.44353.07036.07036,0,1,1-.134-.04308.89314.89314,0,0,1,.442-.52626.88323.88323,0,0,1,.68221-.05746A.07091.07091,0,0,1,23.91184,47.186Z" transform="translate(-2.79758 -28.61866)"/><path class="cls-3" d="M23.86625,47.09705a.88323.88323,0,0,0-.68221.05746.89314.89314,0,0,0-.442.52626.07036.07036,0,1,0,.134.04308.75271.75271,0,0,1,.37254-.44353.74409.74409,0,0,1,.575-.04839.07075.07075,0,0,0,.04279-.13488Z" transform="translate(-2.79758 -28.61866)"/><path class="cls-2" d="M18.45126,38.80279a4.69676,4.69676,0,0,0-1.52548-.88059,4.94407,4.94407,0,0,1,1.39967.82966c1.35919,1.0736.40194,2.36353-.003,3.1526a2.22315,2.22315,0,0,1-2.90056.76428c-.67547-.46388-1.0963-.62877-1.2842-1.0624.15607.55589.59722.70672,1.34981,1.22748a2.25531,2.25531,0,0,0,2.94884-.79547C18.85059,41.227,19.82768,39.89945,18.45126,38.80279Z" transform="translate(-2.79758 -28.61866)"/><path class="cls-3" d="M15.42188,42.66874a2.22315,2.22315,0,0,0,2.90056-.76428c.40495-.78907,1.3622-2.079.003-3.1526a4.94407,4.94407,0,0,0-1.39967-.82966,1.645,1.645,0,0,0-1.39454.07238c-.51612.27565-1.34585.61083-1.34585.61083-1.227.63489-.14765,1.12932-.1626,2.23891a1.83891,1.83891,0,0,0,.11489.762C14.32558,42.04,14.74641,42.20486,15.42188,42.66874Zm1.38459-2.55036a1.13014,1.13014,0,1,1-2.15169-.69205l.00746-.02161.00637-.022a1.08254,1.08254,0,0,1,1.36244-.7074l.02148.00751.02181.00641A1.13856,1.13856,0,0,1,16.80647,40.11838Z" transform="translate(-2.79758 -28.61866)"/><path class="cls-4" d="M16.07434,38.68927l-.02181-.00641a1.09034,1.09034,0,1,1-1.39029.72186l-.00746.02161a1.13014,1.13014,0,1,0,1.41956-.73706Z" transform="translate(-2.79758 -28.61866)"/><path class="cls-5" d="M15.37128,40.75436a1.09046,1.09046,0,0,0,.68125-2.0715l-.02148-.00751a1.08254,1.08254,0,0,0-1.36244.7074l-.00637.022A1.09242,1.09242,0,0,0,15.37128,40.75436Zm.64768-1.73123a.07018.07018,0,0,1-.08837.04589.74433.74433,0,0,0-.575.04843.75265.75265,0,0,0-.37254.44353.07038.07038,0,0,1-.067.04926.06953.06953,0,0,1-.02141-.00338.07086.07086,0,0,1-.04558-.089.893.893,0,0,1,.442-.52627.88324.88324,0,0,1,.68221-.05746A.07087.07087,0,0,1,16.019,39.02313Z" transform="translate(-2.79758 -28.61866)"/><path class="cls-3" d="M15.97338,38.93417a.88324.88324,0,0,0-.68221.05746.893.893,0,0,0-.442.52627.07086.07086,0,0,0,.04558.089.06953.06953,0,0,0,.02141.00338.07038.07038,0,0,0,.067-.04926.75265.75265,0,0,1,.37254-.44353.74433.74433,0,0,1,.575-.04843.07074.07074,0,0,0,.04279-.13485Z" transform="translate(-2.79758 -28.61866)"/><path class="cls-2" d="M19.04758,56.94874c-.06006.01025-.12012.02-.16992.03027a1.59794,1.59794,0,0,0-.54981-2.02,5.2045,5.2045,0,0,0-1.40039-.83007,4.778,4.778,0,0,1,1.52.87988A1.61408,1.61408,0,0,1,19.04758,56.94874Z" transform="translate(-2.79758 -28.61866)"/><path class="cls-3" d="M18.32785,54.959a5.2045,5.2045,0,0,0-1.40039-.83007,1.66308,1.66308,0,0,0-1.3999.06982c-.50976.28027-1.33984.61035-1.33984.61035-1.08008.55957-.37012,1.00977-.2002,1.86963a9.61885,9.61885,0,0,0,1.07032.21045,1.1247,1.1247,0,0,1-.43018-1.12012.4413.4413,0,0,1,.03027-.16015c.00977,0,.00977-.00977.00977-.02a1.08637,1.08637,0,0,1,1.35986-.71.03114.03114,0,0,0,.02.01025.73214.73214,0,0,1,.16016.06982,1.13592,1.13592,0,0,1-.03028,2.06983c.3003.02.6001.04.90039.04h.19971a14.159,14.159,0,0,0,1.6001-.08985A1.59794,1.59794,0,0,0,18.32785,54.959Z" transform="translate(-2.79758 -28.61866)"/><path class="cls-4" d="M16.80784,56.32911a1.114,1.114,0,0,1-1.42041.73,1.14918,1.14918,0,0,1-.32959-.16992,1.1247,1.1247,0,0,1-.43018-1.12012,1.07729,1.07729,0,0,0,.68018,1.15967c.02.02.03955.02.06.03027a.95272.95272,0,0,0,.5.04h.00977a1.11643,1.11643,0,0,0,.85986-.74023,1.098,1.098,0,0,0-.52978-1.29981A1.12371,1.12371,0,0,1,16.80784,56.32911Z" transform="translate(-2.79758 -28.61866)"/><path class="cls-5" d="M15.37128,56.96243a1.09045,1.09045,0,0,0,.68125-2.07149l-.02148-.00751a1.08253,1.08253,0,0,0-1.36244.7074l-.00637.022A1.09242,1.09242,0,0,0,15.37128,56.96243Zm.64768-1.73121a.07034.07034,0,0,1-.08837.0459.74392.74392,0,0,0-.575.04839.75271.75271,0,0,0-.37254.44353.07035.07035,0,1,1-.134-.04308.893.893,0,0,1,.442-.52626.88335.88335,0,0,1,.68221-.05746A.0709.0709,0,0,1,16.019,55.23122Z" transform="translate(-2.79758 -28.61866)"/><path class="cls-3" d="M15.97338,55.14224a.88335.88335,0,0,0-.68221.05746.893.893,0,0,0-.442.52626.07036.07036,0,1,0,.134.04308.75271.75271,0,0,1,.37254-.44353.74392.74392,0,0,1,.575-.04839.07075.07075,0,0,0,.04279-.13488Z" transform="translate(-2.79758 -28.61866)"/><path class="cls-2" d="M31.59739,42.979v.13965a1.52564,1.52564,0,0,1-.33985-.16992c-.29-.19971-.52978-.33984-.71972-.48a1.25871,1.25871,0,0,1-.62989-.73975,1.52034,1.52034,0,0,0,.62989.62989c.18994.12011.40966.25.65966.43017.02.00977.03028.02.0503.02979A1.22525,1.22525,0,0,0,31.59739,42.979Z" transform="translate(-2.79758 -28.61866)"/><path class="cls-3" d="M31.24778,42.81886c-.02-.00977-.03028-.02-.0503-.02979-.25-.18017-.46972-.31006-.65966-.43017a1.52034,1.52034,0,0,1-.62989-.62989,1.82044,1.82044,0,0,1-.11035-.77c.01026-1.10986-1.06982-1.60009.16016-2.24023,0,0,.23-.08984.52-.21973.02-.01025.04-.01025.06006-.02V38.669c.0498.14013.09961.27978.13964.43017a.51931.51931,0,0,0-.13964.18994.98943.98943,0,0,0-.1001.21v.02a.95506.95506,0,0,0-.04.15967,1.08065,1.08065,0,0,0,.14014.79,1.00718,1.00718,0,0,0,.55957.47022A14.43133,14.43133,0,0,1,31.24778,42.81886Z" transform="translate(-2.79758 -28.61866)"/><path class="cls-4" d="M31.09739,40.939a1.00718,1.00718,0,0,1-.55957-.47022,1.08065,1.08065,0,0,1-.14014-.79,1.12657,1.12657,0,0,0,.14014.7002.98571.98571,0,0,0,.54.46A.45277.45277,0,0,0,31.09739,40.939Z" transform="translate(-2.79758 -28.61866)"/><path class="cls-5" d="M30.80784,39.55909a.63869.63869,0,0,0-.0503.11963.07485.07485,0,0,1-.06982.05029h-.02a.08059.08059,0,0,1-.04981-.08984.81122.81122,0,0,1,.13965-.26025c-.02978-.1001-.0498-.18994-.08008-.27979a.51931.51931,0,0,0-.13964.18994.98943.98943,0,0,0-.1001.21v.02a.95506.95506,0,0,0-.04.15967,1.12657,1.12657,0,0,0,.14014.7002.98571.98571,0,0,0,.54.46C31.00754,40.39894,30.9177,39.979,30.80784,39.55909Z" transform="translate(-2.79758 -28.61866)"/><path class="cls-3" d="M30.75754,39.37892c.02.06006.03028.12011.0503.18017a.63869.63869,0,0,0-.0503.11963.07485.07485,0,0,1-.06982.05029h-.02a.08059.08059,0,0,1-.04981-.08984A.81122.81122,0,0,1,30.75754,39.37892Z" transform="translate(-2.79758 -28.61866)"/><path class="cls-3" d="M31.78782,39.13917a.07241.07241,0,0,1-.09034.04981.34379.34379,0,0,0-.10009-.02v-.14991a.40253.40253,0,0,1,.15039.02979A.07616.07616,0,0,1,31.78782,39.13917Z" transform="translate(-2.79758 -28.61866)"/></g><g id="Ebene_3" data-name="Ebene 3"><path class="cls-6" d="M31.25754,42.94874v.15039a13.733,13.733,0,0,1-.71972,4.40967,13.33453,13.33453,0,0,1-1.25,2.74023,14.03765,14.03765,0,0,1-5.62989,5.27979A13.26141,13.26141,0,0,1,20.23752,56.749a9.57355,9.57355,0,0,1-1.18994.19971c-.06006.01025-.12012.02-.16992.03027a14.159,14.159,0,0,1-1.6001.08985h-.19971c-.30029,0-.60009-.02-.90039-.04-.09961-.00977-.1997-.02-.2998-.02979h-.02c-.18994-.02-.35986-.04-.5498-.07031h-.01026a2.02658,2.02658,0,0,1-.23974-.03955,9.61885,9.61885,0,0,1-1.07032-.21045A13.9923,13.9923,0,0,1,3.29758,43.09913a13.91407,13.91407,0,0,1,3.29-9,.31119.31119,0,0,1,.04981-.07031c.25-.29.51025-.58008.79-.8501a3.47392,3.47392,0,0,1,.36036-.31982.28436.28436,0,0,1,.10986-.10987,7.72149,7.72149,0,0,1,.94971-.78027.2222.2222,0,0,1,.11035-.08984,3.0528,3.0528,0,0,1,.2998-.23,11.93266,11.93266,0,0,1,1.31006-.81006c.02-.02.02979-.02979.05029-.02979a13.82751,13.82751,0,0,1,6.65967-1.69043,13.65438,13.65438,0,0,1,3.91016.56006,11.50254,11.50254,0,0,1,1.60986.58008,5.09042,5.09042,0,0,1,.71.33008c.36035.16992.7002.35986,1.04.56006.02.00976.04.02978.06006.04a13.38864,13.38864,0,0,1,2.12988,1.62011.48512.48512,0,0,1,.13037.11963A13.79414,13.79414,0,0,1,30.47776,38.499c.02.04981.04.10987.06006.16993.0498.14013.09961.27978.13964.43017.03028.08985.0503.17969.08008.27979.02.06006.03028.12011.0503.18017.10986.41992.1997.83985.27,1.27979a.45277.45277,0,0,0,.01954.1001,14.43133,14.43133,0,0,1,.15039,1.87988A.58282.58282,0,0,1,31.25754,42.94874Z" transform="translate(-2.79758 -28.61866)"/></g></svg>