<svg xmlns="http://www.w3.org/2000/svg" viewBox="0 0 31.11762 31.11762"><defs><style>.cls-1{fill:#bfa47c;stroke-width:2px;}.cls-1,.cls-2,.cls-3,.cls-4{stroke:#937a5a;stroke-linecap:round;stroke-linejoin:round;}.cls-2{fill:#d1bb9d;}.cls-3,.cls-7{fill:none;}.cls-4{fill:#f7f8f9;}.cls-5{fill:#edd0ce;stroke:#d9b7b0;}.cls-5,.cls-7{stroke-miterlimit:10;}.cls-6{fill:#c3c6c6;}.cls-7{stroke:#4b4745;}</style></defs><title>Maximilian-in-der-Waschmaschine</title><g id="Kopf"><path class="cls-1" d="M48.6351,35.50476a58.89063,58.89063,0,0,0-8.2,5.05l-2.62-2.79a37.51167,37.51167,0,0,1,7.79-7.15A13.84253,13.84253,0,0,1,48.6351,35.50476Z" transform="translate(-19.87426 -24.77927)"/><path class="cls-1" d="M35.122,36.89363c1.038-3.94146,4.09834-9.44711.17918-10.73918s-7.79536,1.63807-7.87384,5.12827,3.50526,2.623,3.50526,2.623l.25452-2.96077-.17072,5.72249Z" transform="translate(-19.87426 -24.77927)"/><circle class="cls-1" cx="13.29337" cy="19.25089" r="8.71051"/><path class="cls-2" d="M39.00509,50.49475a8.60913,8.60913,0,0,1-4.97,2.2c-.23.02-.46.04-.7.04v.01a4.86169,4.86169,0,0,1-1.33,1.23,13.54984,13.54984,0,0,1-2.99005-1.12,13.72918,13.72918,0,0,1-4.77-4l1.11-.96a8.73436,8.73436,0,0,1-.9-3.99006v-.00994c.96-.69,4.37006-.56,6.15,1.03l4.23,2.17C37.65506,46.92474,39.59506,48.98474,39.00509,50.49475Z" transform="translate(-19.87426 -24.77927)"/><path class="cls-3" d="M27.91106,47.89152c-.20587,1.57807,2.28873,1.81036,2.69946,1.0094-.49795.74985,1.36471,2.58348,2.64043,1.71041" transform="translate(-19.87426 -24.77927)"/><path class="cls-4" d="M28.92744,45.67941c-1.44866-1.68068.07928-6.72872,3.16779-6.23246,1.65066.26523,2.22669,2.36472,2.22669,2.36472a3.00238,3.00238,0,0,1,3.10979.89536c2.13757,2.58636-1.599,5.602-3.226,5.66274A7.43041,7.43041,0,0,1,28.92744,45.67941Z" transform="translate(-19.87426 -24.77927)"/><ellipse class="cls-5" cx="31.15993" cy="47.82948" rx="1.20409" ry="1.89187" transform="translate(-45.49246 28.95304) rotate(-62.8519)"/><circle class="cls-6" cx="11.26282" cy="20.41802" r="0.60273"/><circle class="cls-6" cx="13.48259" cy="21.55629" r="0.60273"/></g><g id="Fenster"><circle class="cls-7" cx="15.55881" cy="15.55881" r="15.05881"/></g></svg>