<svg id="Layer_1" data-name="Layer 1" xmlns="http://www.w3.org/2000/svg" viewBox="0 0 51.55319 51.55319"><defs><style>.cls-1{fill:#eac25b;}.cls-2{fill:#5cbc62;}.cls-3,.cls-4{fill:none;stroke-miterlimit:10;}.cls-3{stroke:#bd9948;stroke-width:2px;}.cls-4{stroke:#434444;}</style></defs><title>Ostereiüberraschung-für-Vreni</title><path class="cls-1" d="M45.77805,56.98868a4.91948,4.91948,0,0,1,5.37426-3.61981,34.94641,34.94641,0,0,0-.693-5.02539,4.93493,4.93493,0,1,1-2.64569-7.79438c.08581.02259.16034.0644.2439.09119a23.40627,23.40627,0,0,0-3.78425-6.23041,4.931,4.931,0,1,1-9.11511-3.04767,10.00584,10.00584,0,0,0-3.78033,2.51648,4.88448,4.88448,0,0,1-4.41443,6.933,41.04284,41.04284,0,0,0-2.692,9.0661,4.87983,4.87983,0,0,1,1.45288.1358,4.92125,4.92125,0,0,1-1.0802,9.68134,14.11547,14.11547,0,0,0,1.68872,3.40716,4.89647,4.89647,0,0,1,6.25293,4.95618A13.6996,13.6996,0,0,0,37.5,68.97019a14.67365,14.67365,0,0,0,2.0564-.15912,4.8602,4.8602,0,0,1,7.46405-3.60462,13.05247,13.05247,0,0,0,1.89642-2.33075A4.91882,4.91882,0,0,1,45.77805,56.98868Z" transform="translate(-11.7234 -24.09553)"/><path class="cls-2" d="M51.15231,53.36887a4.909,4.909,0,0,0-2.23547,9.50683A15.22109,15.22109,0,0,0,51.19217,54.605C51.19217,54.216,51.17679,53.79959,51.15231,53.36887Z" transform="translate(-11.7234 -24.09553)"/><path class="cls-2" d="M41.78543,44.06552a4.935,4.935,0,0,0,8.67389,4.278,40.6113,40.6113,0,0,0-2.40179-7.70319c-.08356-.02679-.15809-.0686-.2439-.09119A4.93479,4.93479,0,0,0,41.78543,44.06552Z" transform="translate(-11.7234 -24.09553)"/><path class="cls-2" d="M38.13339,38.63272a4.81088,4.81088,0,0,0,6.13989-4.22284A9.00949,9.00949,0,0,0,37.5657,30.9523a7.30122,7.30122,0,0,0-2.40753.40991,4.8823,4.8823,0,0,0-.5412,1.24231A4.93479,4.93479,0,0,0,38.13339,38.63272Z" transform="translate(-11.7234 -24.09553)"/><path class="cls-2" d="M31.67172,37.1536a4.88829,4.88829,0,0,0-.29388-3.27491,22.92073,22.92073,0,0,0-4.41443,6.933A4.92072,4.92072,0,0,0,31.67172,37.1536Z" transform="translate(-11.7234 -24.09553)"/><path class="cls-2" d="M29.24075,56.04178a4.93482,4.93482,0,0,0-3.51648-6.0282,4.87983,4.87983,0,0,0-1.45288-.1358,28.32887,28.32887,0,0,0-.46356,4.72717,15.7192,15.7192,0,0,0,.83624,5.09A4.91858,4.91858,0,0,0,29.24075,56.04178Z" transform="translate(-11.7234 -24.09553)"/><path class="cls-2" d="M39.66434,68.12827a4.888,4.888,0,0,0-.108.6828,13.247,13.247,0,0,0,7.46405-3.60462,4.88,4.88,0,0,0-1.32788-.59466A4.93481,4.93481,0,0,0,39.66434,68.12827Z" transform="translate(-11.7234 -24.09553)"/><path class="cls-2" d="M28.91507,63.06278a4.88547,4.88547,0,0,0-2.58228.0393,13.30318,13.30318,0,0,0,6.25293,4.95618A4.93362,4.93362,0,0,0,28.91507,63.06278Z" transform="translate(-11.7234 -24.09553)"/><circle class="cls-2" cx="25.77658" cy="34.26043" r="4.93481"/><circle class="cls-2" cx="22.45451" cy="21.67935" r="4.93481"/><path class="cls-3" d="M51.19217,54.6941c0,8.72482-6.13019,14.36523-13.69217,14.36523S23.80783,63.09742,23.80783,54.6941c0-7.562,4.87092-23.65266,13.75792-23.65266C46.55607,31.04144,51.19217,47.13214,51.19217,54.6941Z" transform="translate(-11.7234 -24.09553)"/><circle class="cls-4" cx="25.7766" cy="25.7766" r="25.2766"/></svg>