<svg version="1" xmlns="http://www.w3.org/2000/svg" width="1440" height="1440" viewBox="0 0 1080.000000 1080.000000"><path d="M631.1 56.6c-18.6 3.9-32.2 11.3-45.7 24.8-18.6 18.7-26.5 37.9-26.4 64.9 0 11.8.2 13.5 2.9 23.9 3.8 14.5 11.1 27 23 38.9 17.9 17.9 37.9 26.4 62.4 26.7 22.3.3 39.9-5.2 55.6-17.1 17.4-13.4 29.2-30.4 34.1-49.6 3-11.5 3.3-33.2.6-44.5-8.3-34.8-35-60.8-70-68.1-8-1.7-28.4-1.6-36.5.1zM657.7 343.6c-.1.1-3.8.5-8.2.8-4.4.4-9.1.9-10.5 1.1-3.6.6-17.9 2.6-22 3.1-1.9.2-6 .9-9 1.4-3 .6-6.7 1.2-8.2 1.5-1.6.3-4 .7-5.5 1-1.6.3-5.5.9-8.8 1.5-3.3.5-7.1 1.2-8.5 1.5-3.1.6-17.4 3.3-21.5 4-1.6.2-4.1.7-5.5 1-1.4.3-4.1.8-6 1.1-1.9.3-4.2.7-5 .9-.8.2-3.1.7-5 1-1.9.3-8.9 1.7-15.5 3s-20.5 4-31 6c-10.4 2-19.4 3.8-20 3.9-.5.1-4.4.8-8.5 1.6-4.1.7-7.8 1.6-8.2 1.9-.4.3-2.1 5.5-3.8 11.4-1.7 6-3.4 11.5-3.7 12.2-.4 1.2 1.8 1.4 11.9 1.2 21.5-.5 35.3 4 46.6 15.2 8.3 8.3 10.7 13.6 10.6 23.1 0 7.7-.3 10-3 23-1.2 5.8-6.9 29.4-10 41-1.4 5.2-4.5 17.8-4.8 19.5-.3 1.1-.5 2-.6 2-.1 0-.3.8-.6 1.7-.2 1-.5 2.4-.7 3-.2.7-.7 2.9-1.1 4.8-.5 1.9-2.1 8.3-3.7 14.1-1.5 5.8-3 11.7-3.3 13-.6 3.1-.4 2-8 31.9-18 70.6-37.7 148.4-38.1 150.2-1.1 5-22.5 87.3-27.5 105.8-13.9 50.7-23.2 78.5-33.3 98.7-13.8 27.8-30.2 40.4-52.3 40.4-10.5 0-17.4-4.6-17.4-11.7 0-2.6 1.3-4.9 6.1-10.6 12.6-14.9 17.7-25.2 18.4-36.7 1.2-23.2-13.6-42.4-38-49.2-7.6-2.1-32.1-1.8-40.9.5-14.4 3.8-25.6 10.4-36.2 21.2-8.3 8.5-13.5 16.8-17.1 27.3-2.2 6.4-2.7 9.4-2.7 19.1 0 9.9.3 12.5 2.5 18.6 7.4 20.5 26.7 37.9 51.4 46.2 15.7 5.3 27.9 6.7 57 6.6 23.5 0 32.3-1 55.5-6 10.1-2.1 29.2-7.7 35.5-10.3 1.1-.5 5.6-2.3 10-4.1 10.9-4.5 24.5-11.3 33.5-16.8 7.6-4.6 22.1-14.1 23-15.2.3-.3 2.5-2.1 5-4 7.8-6 11.2-9.1 23.6-21.5 18.6-18.5 35.3-40.7 45.9-61 5.5-10.4 17.6-39.4 20.3-48.6.6-1.9 2.4-7 4-11.4s6.4-18.1 10.5-30.5c18.8-55.5 38.1-109.1 54.2-150.5 7.6-19.6 17.7-40.3 28.3-58.5 5.4-9.2 18-29 19.1-30 .4-.3 3.9-4.9 7.9-10.3 16.3-21.9 30.4-36.3 40.7-41.9 5-2.7 7.1-3.3 12.6-3.3 5.7 0 7 .4 10.2 2.8 4.2 3.2 8.9 9.9 16.7 23.7 7.9 14 10 16.7 17.2 22.2 11.7 9 29.2 10.6 43.8 4.1 25.5-11.4 50.5-56.8 55.6-100.8.2-2.2.7-6.3 1-9 1.4-12.3.8-35.2-1.3-46.4-1.1-6-6.1-19.2-9.5-24.8-5.4-9-15.8-18.4-24.8-22.6-13.5-6.3-34.7-6.7-52-1.1-26.1 8.4-48.6 27-75.6 62.4-7.9 10.2-17.4 23.9-17.4 24.9 0 .5-.4 1.1-.8 1.3-1.9.7-24 37.4-38.2 63.3-9.9 18.1-32 62.6-32 64.5 0 .7-.2 1.1-.5.8-.3-.3.8-5.7 2.5-11.9 1.7-6.3 3.3-12.2 3.5-13.1.2-.9 3.3-12.6 6.9-26 3.6-13.4 7.4-27.8 8.5-32.1 1.2-4.2 3-11.2 4.2-15.5 1.2-4.2 2.2-8.2 2.3-8.7 1-3.9 2.1-7.9 3.8-13.9 1.1-3.8 2.1-7.6 2.3-8.5.3-1.6 5-19.4 8.1-30.6.9-3.3 1.8-6.7 2-7.5.1-.8 2.4-9.2 4.9-18.5 2.6-9.4 5-18.6 5.5-20.5.5-1.9 1.5-5.9 2.3-8.7.9-3.2 1.1-5.5.6-5.9-.8-.5-29.6-.3-30.2.2z"/></svg>