<?xml version="1.0" encoding="utf-8"?>
<!-- Generator: Adobe Illustrator 22.1.0, SVG Export Plug-In . SVG Version: 6.00 Build 0)  -->
<svg version="1.1"
	 id="svg2970" inkscape:version="0.48.4 r9939" sodipodi:docname="Mouse Cyclops.svg" xmlns:cc="http://creativecommons.org/ns#" xmlns:dc="http://purl.org/dc/elements/1.1/" xmlns:inkscape="http://www.inkscape.org/namespaces/inkscape" xmlns:ns1="http://sozi.baierouge.fr" xmlns:rdf="http://www.w3.org/1999/02/22-rdf-syntax-ns#" xmlns:sodipodi="http://sodipodi.sourceforge.net/DTD/sodipodi-0.dtd" xmlns:svg="http://www.w3.org/2000/svg"
	 xmlns="http://www.w3.org/2000/svg" xmlns:xlink="http://www.w3.org/1999/xlink" x="0px" y="0px" viewBox="0 0 212.6 319"
	 style="enable-background:new 0 0 212.6 319;" xml:space="preserve">
<style type="text/css">
	.st0{fill:#FFFFFF;}
</style>
<defs>
	
	
		<inkscape:perspective  id="perspective2978" inkscape:persp3d-origin="372.04724 : 350.78739 : 1" inkscape:vp_x="0 : 526.18109 : 1" inkscape:vp_y="0 : 1000 : 0" inkscape:vp_z="744.09448 : 526.18109 : 1" sodipodi:type="inkscape:persp3d">
		</inkscape:perspective>
	
		<inkscape:perspective  id="perspective2965" inkscape:persp3d-origin="0.5 : 0.33333333 : 1" inkscape:vp_x="0 : 0.5 : 1" inkscape:vp_y="0 : 1000 : 0" inkscape:vp_z="1 : 0.5 : 1" sodipodi:type="inkscape:persp3d">
		</inkscape:perspective>
</defs>
<sodipodi:namedview  bordercolor="#666666" borderopacity="1.0" fit-margin-bottom="0" fit-margin-left="0" fit-margin-right="0" fit-margin-top="0" id="base" inkscape:current-layer="layer1" inkscape:cx="121.45345" inkscape:cy="234.49843" inkscape:document-units="px" inkscape:pageopacity="0.0" inkscape:pageshadow="2" inkscape:window-height="802" inkscape:window-maximized="1" inkscape:window-width="1152" inkscape:window-x="-8" inkscape:window-y="-8" inkscape:zoom="0.79824502" pagecolor="#ffffff" showgrid="false">
	</sodipodi:namedview>
<g id="layer1" transform="translate(-623.4856,537.81898)" inkscape:groupmode="layer" inkscape:label="Layer 1">
	<g>
		<path class="st0" d="M719.8-537.8h-19.6c-42.3,0-76.7,34.3-76.7,76.7v165.6c0,42.3,34.3,76.7,76.7,76.7h59.3
			c42.4,0,76.7-34.3,76.7-76.7v-165.6c-0.1-42.3-34.4-76.7-76.8-76.7h-19.6H719.8z M747.5-486.7v43.5c0,11.1-7.9,20.1-17.7,20.1
			c-4.9,0-9.3-2.3-12.5-5.9c-3.2-3.7-5.2-8.7-5.2-14.2v-43.5c0-11.1,7.9-20.1,17.7-20.1C739.6-506.8,747.5-497.8,747.5-486.7z
			 M818.4-304.8c0,37.8-30.4,68.2-68.2,68.2h-40.9c-37.8,0-68.2-30.4-68.2-68.2v-64.1h177.2v64.1H818.4z M818.4-386.6h-79.7V-410
			c13-1.7,23-12.8,23-26.3v-57.3c0-14.7-11.8-26.6-26.5-26.6h15.1c37.8,0,68.2,30.4,68.2,68.2L818.4-386.6L818.4-386.6z"/>
	</g>
</g>
</svg>
