<?xml version="1.0" encoding="utf-8"?>
<!-- Generator: Adobe Illustrator 22.1.0, SVG Export Plug-In . SVG Version: 6.00 Build 0)  -->
<svg version="1.1" id="Layer_1" xmlns="http://www.w3.org/2000/svg" xmlns:xlink="http://www.w3.org/1999/xlink" x="0px" y="0px"
	 viewBox="0 0 508.1 787.8" style="enable-background:new 0 0 508.1 787.8;" xml:space="preserve">
<style type="text/css">
	.st0{fill:#cb2037;}
</style>
<title>logo-white</title>
<path class="st0" d="M382.4,19.6C369.4,6.6,353.6,0,335,0s-34.5,6.5-47.7,19.6c-13.1,13.1-19.6,28.9-19.6,47.6
	c0,18.4,6.5,34.1,19.6,47.2c13.1,13.1,29,19.6,47.7,19.6c18.3,0,34.1-6.5,47.2-19.6c13.1-13.1,19.6-28.8,19.6-47.2
	C401.8,48.6,395.3,32.7,382.4,19.6z"/>
<path class="st0" d="M508.1,271c0,31.6-7.7,58.2-23,79.7c-9.8,13.7-20.7,20.5-32.7,20.5c-13,0-22.8-6-29.3-18.1
	c-6.5-12.1-11.1-19.1-13.7-21.3c-2.3-2-5.3-3.1-8.3-3.2c-3.6,0.1-7.2,1.1-10.3,2.9c-7.2,3.9-16.5,13.5-28.1,28.6
	c-17.9,23.1-32.3,48.7-42.8,76c-38.6,99.5-51.8,155.1-68.5,183.1c-59,98.8-159.3,98.3-170.7,98.3c-27.4,0-47.7-5.4-60.9-16.1
	C6.6,690.7,0,678.5,0,664.8c0-13.7,5.5-25.8,16.4-36.4s24.9-15.9,41.8-15.9c13,0,23.3,3.5,30.8,10.5c7.5,7,11.2,15.4,11.3,25.2
	c0,9.4-4.4,18.9-13.2,28.3c-3.6,3.9-5.4,6.9-5.4,8.8c0.1,2.4,1.2,4.7,3.2,6.1c2.1,1.8,5.3,2.7,9.5,2.7c36.8,0,48.1-41.4,75.3-145.7
	l53.5-211c7.2-27,10.8-44,10.7-50.8c0-6.5-3.6-12.8-10.7-18.8s-16.6-9.1-28.3-9.1c-3.6,0-7.8,0.2-12.7,0.5l5.4-18.6
	c0,0,108.6-21.7,137.1-25.1s39.3-1.8,39.3-1.8l-44.6,166.8c33.9-72.9,64.4-117.5,86-139.4c17.9-18.3,36.8-27.4,56.7-27.4
	c13.7,0,24.8,5,33.3,14.9S508.1,252.7,508.1,271z"/>
</svg>
