<svg id="Layer_1" data-name="Layer 1" xmlns="http://www.w3.org/2000/svg" xmlns:xlink="http://www.w3.org/1999/xlink" viewBox="0 0 1920 573.17935"><defs><style>.cls-1{fill:url(#radial-gradient);}.cls-2{opacity:0.5;}.cls-3{fill:#ddd;}.cls-4{opacity:0.6;}.cls-5{opacity:0.7;}.cls-6{opacity:0.8;}.cls-7{opacity:0.9;}.cls-8{font-size:71.22142px;font-family:Merriweather-Black, Merriweather;}.cls-9{fill:#e9e9e9;}.cls-10{fill:none;stroke:#000;stroke-linecap:round;stroke-linejoin:round;}</style><radialGradient id="radial-gradient" cx="932.89778" cy="563.88138" r="918.25431" gradientTransform="translate(0 276.33033) scale(1 0.50995)" gradientUnits="userSpaceOnUse"><stop offset="0" stop-color="#e9e9e9"/><stop offset="1" stop-color="#f6f6f6" stop-opacity="0"/></radialGradient></defs><title>404</title><path class="cls-1" d="M1920,697v383H0V808c162-78,251-118,448-178,265.72185-80.93051,588.64-111.22,946.17993-31.52,2.27.5,4.55005,1.01,6.82007,1.52.04.01.09009.02.13.03C1761.04,681,1920,697,1920,697Z" transform="translate(0 -506.82065)"/><g class="cls-2"><path class="cls-3" d="M1128.79292,1012.66147c-25.18621,20.13219-12.16354,37.69056,21.22358,22.16577s96.44615-45.34175,62.02727-69.94892C1172.98956,936.95719,1163.83693,984.6496,1128.79292,1012.66147Z" transform="translate(0 -506.82065)"/><path class="cls-3" d="M1091.30023,1042.00261c14.86409-6.98586,33.37252,6.21846,3.66307,20.75921C1074.92746,1072.568,1058.65432,1057.34558,1091.30023,1042.00261Z" transform="translate(0 -506.82065)"/></g><g class="cls-4"><path class="cls-3" d="M1274.01348,847.00838c-12.37529,14.52061-2.84051,23.26146,14.816,10.4981s50.94927-37.15738,28.19328-47.59428C1291.20213,798.06972,1291.23242,826.80446,1274.01348,847.00838Z" transform="translate(0 -506.82065)"/><path class="cls-3" d="M1255.521,868.25917c7.85245-5.72539,20.08613-.12929,4.45594,11.65C1249.436,887.853,1238.27469,880.83379,1255.521,868.25917Z" transform="translate(0 -506.82065)"/></g><g class="cls-5"><path class="cls-3" d="M1340.91935,726.27006c-5.55459,9.49442.78546,13.3491,9.53286,4.26105s25.20743-26.408,11.15386-29.76489C1345.65984,696.95719,1348.648,713.05954,1340.91935,726.27006Z" transform="translate(0 -506.82065)"/><path class="cls-3" d="M1332.5728,740.20685c3.88519-4.06928,11.4389-2.27288,3.74508,6.04161C1331.12922,751.85571,1324.0398,749.14417,1332.5728,740.20685Z" transform="translate(0 -506.82065)"/></g><g class="cls-6"><path class="cls-3" d="M1371.54171,648.85105c-3.61276,5.93348.3478,8.43784,5.9721,2.7964s16.21-16.39517,7.37335-18.67086C1374.8604,630.39443,1376.56849,640.59523,1371.54171,648.85105Z" transform="translate(0 -506.82065)"/><path class="cls-3" d="M1366.11669,657.55862c2.49842-2.52637,7.24818-1.30822,2.29772,3.85647C1365.07586,664.89812,1360.62943,663.10726,1366.11669,657.55862Z" transform="translate(0 -506.82065)"/></g><path class="cls-3" d="M1401.13,600.03c-.22009.21-.42.42-.62.62-5.41992,5.44-9.29,3.30005-6.33008-2.17,2.27.5,4.55005,1.01,6.82007,1.52C1401.04,600.01,1401.09009,600.02,1401.13,600.03Z" transform="translate(0 -506.82065)"/><path class="cls-3" d="M1389.11669,606.55862c2.49842-2.52637,7.24818-1.30822,2.29772,3.85647C1388.07586,613.89812,1383.62943,612.10726,1389.11669,606.55862Z" transform="translate(0 -506.82065)"/><g class="cls-2"><path class="cls-3" d="M825.1244,1003.60983c-25.8639,22.19385-21.38681,49.06564,12.75343,29.74833,46.14579-26.11032,126.60585-32.34331,110.01556-55.53668C913.34311,929.51988,861.87845,972.07113,825.1244,1003.60983Z" transform="translate(0 -506.82065)"/><path class="cls-3" d="M766.17487,1039.73138c17.94838-5.52173,36.78061,12.39774.81372,24.08839C742.73275,1071.70387,726.755,1051.85871,766.17487,1039.73138Z" transform="translate(0 -506.82065)"/></g><g class="cls-4"><path class="cls-3" d="M1100.18969,878.75559c-13.11947,17.08177-6.8654,33.12223,11.7463,16.74639,25.15657-22.13446,74.11542-36.42418,60.846-48.61853C1145.14752,821.488,1118.83319,854.48146,1100.18969,878.75559Z" transform="translate(0 -506.82065)"/><path class="cls-3" d="M1068.41188,908.74278c10.38558-5.743,24.3578,2.89853,3.6272,14.79393C1058.0585,931.55888,1045.60212,921.35607,1068.41188,908.74278Z" transform="translate(0 -506.82065)"/></g><g class="cls-5"><path class="cls-3" d="M1238.95461,749.91827c-5.30986,10.9781,1.58918,18.518,10.541,7.09395,12.09973-15.44134,40.84719-30.2877,30.15373-34.75028C1257.37951,712.96835,1246.50022,734.31779,1238.95461,749.91827Z" transform="translate(0 -506.82065)"/><path class="cls-3" d="M1224.03631,770.49435c5.60839-4.58162,16.10987-2.10034,4.993,7.2731C1221.53214,784.08883,1211.71865,780.55693,1224.03631,770.49435Z" transform="translate(0 -506.82065)"/></g><g class="cls-6"><path class="cls-3" d="M1323.52662,670.29548c-2.54012,7.48723,3.24393,11.24274,8.33319,3.00083,6.87891-11.14022,25.71026-24.1017,17.568-25.45521C1332.4709,645.02233,1327.13626,659.65571,1323.52662,670.29548Z" transform="translate(0 -506.82065)"/><path class="cls-3" d="M1315.22047,684.98172c3.48187-3.57083,11.26143-3.41733,4.39294,3.84119C1314.98136,693.718,1307.57327,692.82432,1315.22047,684.98172Z" transform="translate(0 -506.82065)"/></g><g class="cls-7"><path class="cls-3" d="M1365.092,620.01673c-.44269,4.82518,3.94282,5.60385,5.92707-.241,2.682-7.90024,12.87091-19.61039,7.33588-18.48213C1366.82793,603.64326,1365.72111,613.15988,1365.092,620.01673Z" transform="translate(0 -506.82065)"/><path class="cls-3" d="M1362.054,630.25437c1.69326-2.8293,6.79667-4.55185,3.4913,1.15067C1363.31617,635.25078,1358.33508,636.46833,1362.054,630.25437Z" transform="translate(0 -506.82065)"/></g><path class="cls-3" d="M1046.77005,613.76748l-5.827,20.97057L992.94069,807.566c-18.8977-2.458-42.37836-6.27456-70.37273-4.78135-26.17416,1.3972-47.984,8.325-67.66911,16.41747L595,747.01038l60.88974-219.21916,5.827-20.97057Z" transform="translate(0 -506.82065)"/><text class="cls-8" transform="translate(746.36195 174.46996) rotate(15.52276)">404</text><rect class="cls-9" x="651.51357" y="559.90136" width="399.62926" height="21.76199" transform="translate(183.80413 -713.83249) rotate(15.5226)"/><rect class="cls-10" x="1009.36254" y="612.03148" width="9.89181" height="8.0371" transform="translate(201.8633 -755.79788) rotate(15.5226)"/><line class="cls-10" x1="991.6723" y1="102.9422" x2="1001.20331" y2="105.58943"/><line class="cls-10" x1="1027.41359" y1="112.86932" x2="1036.9446" y2="115.51655"/><line class="cls-10" x1="1033.50271" y1="109.42743" x2="1030.85547" y2="118.95844"/></svg>